<svg width="486" height="204" viewBox="0 0 486 204" fill="none" xmlns="http://www.w3.org/2000/svg">
<g filter="url(#filter0_d_4_21)">
<circle cx="85" cy="111" r="75" fill="url(#paint0_linear_4_21)"/>
</g>
<g filter="url(#filter1_d_4_21)">
<path d="M33.3429 86.8459C32.6677 82.4928 35.4936 78.3129 39.8467 77.6379C44.8879 76.8562 51.4193 76.0241 56.5 76C62.175 75.9731 70.0065 77.0178 75.4882 77.8815C79.278 78.4787 82 81.7734 82 85.61V132.685C82 137.911 77.0605 141.764 71.9256 140.793C66.9485 139.851 61.0509 138.972 56.5 139C52.752 139.023 48.2399 139.627 44.1149 140.358C38.3908 141.372 33.0398 136.493 33.7769 130.727C34.6428 123.952 35.5 115.684 35.5 109.5C35.5 102.275 34.33 93.2088 33.3429 86.8459Z" fill="white"/>
</g>
<g filter="url(#filter2_d_4_21)">
<path d="M136.602 87.1995C137.293 82.7104 134.267 78.4329 129.764 77.8353C125.117 77.2185 119.129 76.4895 113.5 76C106.692 75.408 99.0077 76.5683 93.8707 77.6137C90.3706 78.326 88 81.4626 88 85.0344V132.685C88 137.911 92.9394 141.764 98.0744 140.793C103.051 139.851 108.949 138.972 113.5 139C117.248 139.023 121.76 139.627 125.885 140.358C131.609 141.372 136.96 136.493 136.223 130.727C135.357 123.952 134.5 115.684 134.5 109.5C134.5 102.408 135.627 93.5415 136.602 87.1995Z" fill="white"/>
</g>
<path d="M223.443 117.068L223.159 126.5H218.477V121H216.841V117.068H223.443ZM201.023 121V97.7273H205.75V117.045H215.432V97.7273H220.216V121H201.023ZM230.963 114.614L237.247 103.545H242.02V121H237.406V109.898L231.145 121H226.338V103.545H230.963V114.614ZM254.253 126.932V97.7273H259.082V126.932H254.253ZM254.253 121.341C252.912 121.341 251.688 121.125 250.582 120.693C249.476 120.254 248.522 119.636 247.719 118.841C246.916 118.038 246.295 117.087 245.855 115.989C245.416 114.883 245.196 113.667 245.196 112.341C245.196 111 245.416 109.78 245.855 108.682C246.295 107.576 246.916 106.625 247.719 105.83C248.522 105.027 249.476 104.409 250.582 103.977C251.688 103.538 252.912 103.318 254.253 103.318H255.151V121.341H254.253ZM254.253 117.568H254.787V107.091H254.253C253.601 107.091 253.022 107.227 252.514 107.5C252.007 107.773 251.579 108.148 251.23 108.625C250.882 109.095 250.616 109.648 250.435 110.284C250.26 110.92 250.173 111.606 250.173 112.341C250.173 113.311 250.332 114.193 250.651 114.989C250.969 115.777 251.435 116.405 252.048 116.875C252.662 117.337 253.397 117.568 254.253 117.568ZM259.082 121.341H258.185V103.318H259.082C260.423 103.318 261.647 103.538 262.753 103.977C263.859 104.409 264.813 105.027 265.616 105.83C266.42 106.625 267.041 107.576 267.48 108.682C267.92 109.78 268.139 111 268.139 112.341C268.139 113.667 267.92 114.883 267.48 115.989C267.041 117.087 266.42 118.038 265.616 118.841C264.813 119.636 263.859 120.254 262.753 120.693C261.647 121.125 260.423 121.341 259.082 121.341ZM259.082 117.568C259.734 117.568 260.313 117.436 260.821 117.17C261.329 116.898 261.757 116.523 262.105 116.045C262.454 115.568 262.719 115.015 262.901 114.386C263.082 113.75 263.173 113.068 263.173 112.341C263.173 111.364 263.01 110.481 262.685 109.693C262.366 108.898 261.904 108.265 261.298 107.795C260.692 107.326 259.954 107.091 259.082 107.091H258.548V117.568H259.082ZM271.307 127.545V103.545H276.08V106.477H276.295C276.508 106.008 276.814 105.53 277.216 105.045C277.625 104.553 278.155 104.144 278.807 103.818C279.466 103.485 280.284 103.318 281.261 103.318C282.534 103.318 283.708 103.652 284.784 104.318C285.86 104.977 286.72 105.973 287.364 107.307C288.008 108.633 288.33 110.295 288.33 112.295C288.33 114.242 288.015 115.886 287.386 117.227C286.765 118.561 285.917 119.572 284.841 120.261C283.773 120.943 282.576 121.284 281.25 121.284C280.311 121.284 279.511 121.129 278.852 120.818C278.201 120.508 277.667 120.117 277.25 119.648C276.833 119.17 276.515 118.689 276.295 118.205H276.148V127.545H271.307ZM276.045 112.273C276.045 113.311 276.189 114.216 276.477 114.989C276.765 115.761 277.182 116.364 277.727 116.795C278.273 117.22 278.936 117.432 279.716 117.432C280.504 117.432 281.17 117.216 281.716 116.784C282.261 116.345 282.674 115.739 282.955 114.966C283.242 114.186 283.386 113.288 283.386 112.273C283.386 111.265 283.246 110.379 282.966 109.614C282.686 108.848 282.273 108.25 281.727 107.818C281.182 107.386 280.511 107.17 279.716 107.17C278.928 107.17 278.261 107.379 277.716 107.795C277.178 108.212 276.765 108.803 276.477 109.568C276.189 110.333 276.045 111.235 276.045 112.273ZM299.443 121.341C297.678 121.341 296.152 120.966 294.864 120.216C293.583 119.458 292.595 118.405 291.898 117.057C291.201 115.701 290.852 114.129 290.852 112.341C290.852 110.538 291.201 108.962 291.898 107.614C292.595 106.258 293.583 105.205 294.864 104.455C296.152 103.697 297.678 103.318 299.443 103.318C301.208 103.318 302.731 103.697 304.011 104.455C305.299 105.205 306.292 106.258 306.989 107.614C307.686 108.962 308.034 110.538 308.034 112.341C308.034 114.129 307.686 115.701 306.989 117.057C306.292 118.405 305.299 119.458 304.011 120.216C302.731 120.966 301.208 121.341 299.443 121.341ZM299.466 117.591C300.269 117.591 300.939 117.364 301.477 116.909C302.015 116.447 302.42 115.818 302.693 115.023C302.973 114.227 303.114 113.322 303.114 112.307C303.114 111.292 302.973 110.386 302.693 109.591C302.42 108.795 302.015 108.167 301.477 107.705C300.939 107.242 300.269 107.011 299.466 107.011C298.655 107.011 297.973 107.242 297.42 107.705C296.875 108.167 296.462 108.795 296.182 109.591C295.909 110.386 295.773 111.292 295.773 112.307C295.773 113.322 295.909 114.227 296.182 115.023C296.462 115.818 296.875 116.447 297.42 116.909C297.973 117.364 298.655 117.591 299.466 117.591ZM331.057 97.7273V121H326.193V101.727H316.784V121H311.92V97.7273H331.057ZM343.537 121.341C341.772 121.341 340.245 120.966 338.957 120.216C337.677 119.458 336.688 118.405 335.991 117.057C335.295 115.701 334.946 114.129 334.946 112.341C334.946 110.538 335.295 108.962 335.991 107.614C336.688 106.258 337.677 105.205 338.957 104.455C340.245 103.697 341.772 103.318 343.537 103.318C345.302 103.318 346.825 103.697 348.105 104.455C349.393 105.205 350.385 106.258 351.082 107.614C351.779 108.962 352.128 110.538 352.128 112.341C352.128 114.129 351.779 115.701 351.082 117.057C350.385 118.405 349.393 119.458 348.105 120.216C346.825 120.966 345.302 121.341 343.537 121.341ZM343.56 117.591C344.363 117.591 345.033 117.364 345.571 116.909C346.109 116.447 346.514 115.818 346.787 115.023C347.067 114.227 347.207 113.322 347.207 112.307C347.207 111.292 347.067 110.386 346.787 109.591C346.514 108.795 346.109 108.167 345.571 107.705C345.033 107.242 344.363 107.011 343.56 107.011C342.749 107.011 342.067 107.242 341.514 107.705C340.969 108.167 340.556 108.795 340.276 109.591C340.003 110.386 339.866 111.292 339.866 112.307C339.866 113.322 340.003 114.227 340.276 115.023C340.556 115.818 340.969 116.447 341.514 116.909C342.067 117.364 342.749 117.591 343.56 117.591ZM365.594 115.648L370.321 103.545H374.003L367.196 121H363.98L357.332 103.545H361.003L365.594 115.648ZM359.901 103.545V121H355.276V103.545H359.901ZM371.526 121V103.545H376.094V121H371.526ZM387.724 121.341C385.959 121.341 384.433 120.966 383.145 120.216C381.865 119.458 380.876 118.405 380.179 117.057C379.482 115.701 379.134 114.129 379.134 112.341C379.134 110.538 379.482 108.962 380.179 107.614C380.876 106.258 381.865 105.205 383.145 104.455C384.433 103.697 385.959 103.318 387.724 103.318C389.49 103.318 391.012 103.697 392.293 104.455C393.58 105.205 394.573 106.258 395.27 107.614C395.967 108.962 396.315 110.538 396.315 112.341C396.315 114.129 395.967 115.701 395.27 117.057C394.573 118.405 393.58 119.458 392.293 120.216C391.012 120.966 389.49 121.341 387.724 121.341ZM387.747 117.591C388.55 117.591 389.221 117.364 389.759 116.909C390.296 116.447 390.702 115.818 390.974 115.023C391.255 114.227 391.395 113.322 391.395 112.307C391.395 111.292 391.255 110.386 390.974 109.591C390.702 108.795 390.296 108.167 389.759 107.705C389.221 107.242 388.55 107.011 387.747 107.011C386.937 107.011 386.255 107.242 385.702 107.705C385.156 108.167 384.743 108.795 384.463 109.591C384.19 110.386 384.054 111.292 384.054 112.307C384.054 113.322 384.19 114.227 384.463 115.023C384.743 115.818 385.156 116.447 385.702 116.909C386.255 117.364 386.937 117.591 387.747 117.591ZM426.884 117.193L426.543 126H422.099V121H420.156V117.193H426.884ZM399.463 103.545H404.088V117.159H409.009V103.545H413.634V117.159H418.554V103.545H423.179V121H399.463V103.545ZM441.923 110.341V114.148H432.81V110.341H441.923ZM434.401 103.545V121H429.776V103.545H434.401ZM444.957 103.545V121H440.366V103.545H444.957ZM453.338 114.614L459.622 103.545H464.395V121H459.781V109.898L453.52 121H448.713V103.545H453.338V114.614ZM468.276 121V103.545H473.116V110.318H474.48L479.23 103.545H484.912L478.741 112.205L484.98 121H479.23L474.923 114.807H473.116V121H468.276Z" fill="url(#paint1_linear_4_21)"/>
<g filter="url(#filter3_d_4_21)">
<rect x="82" y="83" width="6" height="57" rx="2" fill="#10B981"/>
</g>
<circle cx="174" cy="40" r="4" fill="#A78BFA"/>
<circle cx="107" cy="26" r="2" fill="#A78BFA"/>
<circle cx="142" cy="47" r="4" fill="#2563EB"/>
<circle cx="14" cy="51" r="4" fill="#A78BFA"/>
<circle cx="49" cy="20" r="4" fill="#2563EB"/>
<circle cx="194" cy="23" r="3" fill="#2563EB"/>
<circle cx="172" cy="61" r="2" fill="#A78BFA"/>
<circle cx="152" cy="12" r="4" fill="#A78BFA"/>
<circle cx="5" cy="23" r="3" fill="#A78BFA"/>
<circle cx="92" cy="4" r="4" fill="#A78BFA"/>
<defs>
<filter id="filter0_d_4_21" x="0" y="34" width="170" height="170" filterUnits="userSpaceOnUse" color-interpolation-filters="sRGB">
<feFlood flood-opacity="0" result="BackgroundImageFix"/>
<feColorMatrix in="SourceAlpha" type="matrix" values="0 0 0 0 0 0 0 0 0 0 0 0 0 0 0 0 0 0 127 0" result="hardAlpha"/>
<feOffset dy="8"/>
<feGaussianBlur stdDeviation="5"/>
<feComposite in2="hardAlpha" operator="out"/>
<feColorMatrix type="matrix" values="0 0 0 0 0 0 0 0 0 0 0 0 0 0 0 0 0 0 0.25 0"/>
<feBlend mode="normal" in2="BackgroundImageFix" result="effect1_dropShadow_4_21"/>
<feBlend mode="normal" in="SourceGraphic" in2="effect1_dropShadow_4_21" result="shape"/>
</filter>
<filter id="filter1_d_4_21" x="29.2434" y="75.9995" width="56.7566" height="76.9438" filterUnits="userSpaceOnUse" color-interpolation-filters="sRGB">
<feFlood flood-opacity="0" result="BackgroundImageFix"/>
<feColorMatrix in="SourceAlpha" type="matrix" values="0 0 0 0 0 0 0 0 0 0 0 0 0 0 0 0 0 0 127 0" result="hardAlpha"/>
<feOffset dy="8"/>
<feGaussianBlur stdDeviation="2"/>
<feComposite in2="hardAlpha" operator="out"/>
<feColorMatrix type="matrix" values="0 0 0 0 0 0 0 0 0 0 0 0 0 0 0 0 0 0 0.2 0"/>
<feBlend mode="normal" in2="BackgroundImageFix" result="effect1_dropShadow_4_21"/>
<feBlend mode="normal" in="SourceGraphic" in2="effect1_dropShadow_4_21" result="shape"/>
</filter>
<filter id="filter2_d_4_21" x="84" y="75.8395" width="56.7005" height="77.1038" filterUnits="userSpaceOnUse" color-interpolation-filters="sRGB">
<feFlood flood-opacity="0" result="BackgroundImageFix"/>
<feColorMatrix in="SourceAlpha" type="matrix" values="0 0 0 0 0 0 0 0 0 0 0 0 0 0 0 0 0 0 127 0" result="hardAlpha"/>
<feOffset dy="8"/>
<feGaussianBlur stdDeviation="2"/>
<feComposite in2="hardAlpha" operator="out"/>
<feColorMatrix type="matrix" values="0 0 0 0 0 0 0 0 0 0 0 0 0 0 0 0 0 0 0.2 0"/>
<feBlend mode="normal" in2="BackgroundImageFix" result="effect1_dropShadow_4_21"/>
<feBlend mode="normal" in="SourceGraphic" in2="effect1_dropShadow_4_21" result="shape"/>
</filter>
<filter id="filter3_d_4_21" x="78" y="83" width="14" height="69" filterUnits="userSpaceOnUse" color-interpolation-filters="sRGB">
<feFlood flood-opacity="0" result="BackgroundImageFix"/>
<feColorMatrix in="SourceAlpha" type="matrix" values="0 0 0 0 0 0 0 0 0 0 0 0 0 0 0 0 0 0 127 0" result="hardAlpha"/>
<feOffset dy="8"/>
<feGaussianBlur stdDeviation="2"/>
<feComposite in2="hardAlpha" operator="out"/>
<feColorMatrix type="matrix" values="0 0 0 0 0 0 0 0 0 0 0 0 0 0 0 0 0 0 0.2 0"/>
<feBlend mode="normal" in2="BackgroundImageFix" result="effect1_dropShadow_4_21"/>
<feBlend mode="normal" in="SourceGraphic" in2="effect1_dropShadow_4_21" result="shape"/>
</filter>
<linearGradient id="paint0_linear_4_21" x1="85" y1="36" x2="85" y2="186" gradientUnits="userSpaceOnUse">
<stop stop-color="#2563EB"/>
<stop offset="0.803023" stop-color="#7C3AED"/>
</linearGradient>
<linearGradient id="paint1_linear_4_21" x1="199" y1="109.5" x2="486" y2="109.5" gradientUnits="userSpaceOnUse">
<stop stop-color="#2563EB"/>
<stop offset="1" stop-color="#00C0E8"/>
</linearGradient>
</defs>
</svg>
